<?xml version="1.0" encoding="UTF-8"?>
<svg width="22px" height="22px" viewBox="0 0 22 22" version="1.1" xmlns="http://www.w3.org/2000/svg" xmlns:xlink="http://www.w3.org/1999/xlink">
    <title>vuesax/outline/lock</title>
    <g id="slicing" stroke="none" stroke-width="1" fill="none" fill-rule="evenodd">
        <g id="Artboard" transform="translate(-32.000000, -342.000000)">
            <g id="lock" transform="translate(31.000000, 341.000000)">
                <path d="M17.25,10 L17.25,8 C17.25,4.8499999 16.3600001,2.75 12,2.75 C7.63999987,2.75 6.75,4.8499999 6.75,8 L6.75,10 C6.75,10.41 6.41,10.75 6,10.75 C5.59,10.75 5.25,10.41 5.25,10 L5.25,8 C5.25,5.0999999 5.94999981,1.25 12,1.25 C18.0500002,1.25 18.75,5.0999999 18.75,8 L18.75,10 C18.75,10.41 18.41,10.75 18,10.75 C17.59,10.75 17.25,10.41 17.25,10 Z" id="Vector" fill="#292D32" fill-rule="nonzero"></path>
                <path d="M7,22.75 C2.59000015,22.75 1.25,21.4099998 1.25,17 L1.25,15 C1.25,10.5900002 2.59000015,9.25 7,9.25 L17,9.25 C21.4099998,9.25 22.75,10.5900002 22.75,15 L22.75,17 C22.75,21.4099998 21.4099998,22.75 17,22.75 L7,22.75 Z M2.75,15 L2.75,17 C2.75,20.5699999 3.42000008,21.25 7,21.25 L17,21.25 C20.5799999,21.25 21.25,20.5699999 21.25,17 L21.25,15 C21.25,11.4300001 20.5799999,10.75 17,10.75 L7,10.75 C3.42000008,10.75 2.75,11.4300001 2.75,15 Z" id="Vector" fill="#292D32"></path>
                <path d="M7.61999512,16.9198866 C7.48999512,16.8698866 7.39000855,16.7998646 7.29000854,16.7098646 C7.11000854,16.5198646 7,16.2698732 7,15.9998732 C7,15.8698732 7.02998657,15.7398683 7.07998657,15.6198683 C7.12998657,15.4898683 7.20000854,15.3898817 7.29000854,15.2898817 C7.39000855,15.1998817 7.48999512,15.1298598 7.61999512,15.0798598 C7.97999513,14.9198598 8.42999145,15.0098817 8.70999146,15.2898817 C8.79999146,15.3898817 8.87001343,15.4998683 8.92001343,15.6198683 C8.97001343,15.7398683 9,15.8698732 9,15.9998732 C9,16.2598732 8.88999146,16.5198646 8.70999146,16.7098646 C8.51999146,16.8898646 8.25999999,16.9998732 8,16.9998732 C7.87,16.9998732 7.73999511,16.9698866 7.61999512,16.9198866 Z" id="Vector" fill="#292D32" fill-rule="nonzero"></path>
                <path d="M11.2900085,16.7099046 C11.1100085,16.5199046 11,16.2699131 11,15.9999131 C11,15.8699131 11.0199866,15.7399082 11.0799866,15.6199082 C11.1299866,15.4999082 11.2000085,15.3899216 11.2900085,15.2899216 C11.5200085,15.0599216 11.8700024,14.9499021 12.1900024,15.0199021 C12.2600024,15.0299021 12.3200049,15.0498997 12.3800049,15.0798997 C12.4400049,15.0998997 12.5,15.1299265 12.5599976,15.1699265 C12.6099976,15.1999265 12.6599915,15.2499216 12.7099915,15.2899216 C12.7999915,15.3899216 12.8700134,15.4999082 12.9200134,15.6199082 C12.9700134,15.7399082 13,15.8699131 13,15.9999131 C13,16.2699131 12.8899915,16.5199046 12.7099915,16.7099046 C12.6599915,16.7499046 12.6099976,16.7898997 12.5599976,16.8298997 C12.5,16.8698997 12.4400049,16.8999265 12.3800049,16.9199265 C12.3200049,16.9499265 12.2600024,16.9699241 12.1900024,16.9799241 C12.1300024,16.9899241 12.06,16.999913 12,16.999913 C11.74,16.999913 11.4800085,16.8899046 11.2900085,16.7099046 Z" id="Vector" fill="#292D32" fill-rule="nonzero"></path>
                <path d="M15.2900085,16.7099046 C15.2000085,16.6099046 15.1299866,16.499918 15.0799866,16.379918 C15.0299866,16.259918 15,16.1299131 15,15.9999131 C15,15.7399131 15.1100085,15.4799216 15.2900085,15.2899216 C15.3400085,15.2499216 15.3900024,15.2099265 15.4400024,15.1699265 C15.5,15.1299265 15.5599951,15.0998997 15.6199951,15.0798997 C15.6799951,15.0498997 15.7399878,15.0299021 15.7999878,15.0199021 C16.1299878,14.9499021 16.4699915,15.0599216 16.7099915,15.2899216 C16.8899915,15.4799216 17,15.7299131 17,15.9999131 C17,16.1299131 16.9700134,16.259918 16.9200134,16.379918 C16.8700134,16.509918 16.7999915,16.6099046 16.7099915,16.7099046 C16.5199915,16.8899046 16.26,16.999913 16,16.999913 C15.73,16.999913 15.4800085,16.8899046 15.2900085,16.7099046 Z" id="Vector" fill="#292D32" fill-rule="nonzero"></path>
                <path d="M24,0 L24,24 L0,24 L0,0 L24,0 Z" id="Vector" opacity="0"></path>
            </g>
        </g>
    </g>
</svg>