<?xml version="1.0" encoding="UTF-8"?>
<svg width="20px" height="22px" viewBox="0 0 20 22" version="1.1" xmlns="http://www.w3.org/2000/svg" xmlns:xlink="http://www.w3.org/1999/xlink">
    <title>vuesax/outline/user</title>
    <g id="slicing" stroke="none" stroke-width="1" fill="none" fill-rule="evenodd">
        <g id="Artboard" transform="translate(-96.000000, -354.000000)">
            <g id="user" transform="translate(94.000000, 353.000000)">
                <path d="M6.25,7 C6.25,3.82999992 8.82999992,1.25 12,1.25 C15.1700001,1.25 17.75,3.82999992 17.75,7 C17.75,10.1700001 15.1700001,12.75 12,12.75 C8.82999992,12.75 6.25,10.1700001 6.25,7 Z M7.75,7 C7.75,9.33999991 9.66000009,11.25 12,11.25 C14.3399999,11.25 16.25,9.33999991 16.25,7 C16.25,4.66000009 14.3399999,2.75 12,2.75 C9.66000009,2.75 7.75,4.66000009 7.75,7 Z" id="Vector" fill="#292D32"></path>
                <path d="M19.8401489,22 C19.8401489,18.55 16.3201528,15.75 12.0001526,15.75 C7.68015242,15.75 4.16015625,18.55 4.16015625,22 C4.16015625,22.41 3.82015625,22.75 3.41015625,22.75 C3.00015625,22.75 2.66015625,22.41 2.66015625,22 C2.66015625,17.73 6.85015249,14.25 12.0001526,14.25 C17.1501527,14.25 21.3401489,17.73 21.3401489,22 C21.3401489,22.41 21.0001489,22.75 20.5901489,22.75 C20.1801489,22.75 19.8401489,22.41 19.8401489,22 Z" id="Vector" fill="#292D32" fill-rule="nonzero"></path>
                <path d="M24,0 L24,24 L0,24 L0,0 L24,0 Z" id="Vector" opacity="0"></path>
            </g>
        </g>
    </g>
</svg>